# AST/ASF file generated using VICON BodyLanguage
# -----------------------------------------------
:version 1.10
:name VICON
:units
  mass 1.0
  length 0.45
  angle deg
:documentation
   .ast/.asf automatically generated from VICON data using
   VICON BodyBuilder and BodyLanguage model FoxedUp or BRILLIANT.MOD
:root
   order TX TY TZ RX RY RZ
   axis XYZ
   position 0 0 0  
   orientation 0 0 0 
:bonedata
  begin
     id 1 
     name lhipjoint
     direction 0.547975 -0.797114 0.253638 
     length 2.36201 
     axis 0 0 0  XYZ
  end
  begin
     id 2 
     name lfemur
     direction 0.34202 -0.939693 0  
     length 7.69075  
     axis 0 0 20  XYZ
    dof rx ry rz
    limits (-160.0 20.0)
           (-70.0 70.0)
           (-60.0 70.0)
  end
  begin
     id 3 
     name ltibia
     direction 0.34202 -0.939693 0   
     length 7.91399   
     axis 0 0 20   XYZ
    dof rx
    limits (-10.0 170.0)
  end
  begin
     id 4 
     name lfoot
     direction 0.0705293 -0.193778 0.978507   
     length 2.13618   
     axis -90 7.62852e-016 20   XYZ
    dof rx rz
    limits (-45.0 90.0)
           (-70.0 20.0)
  end
  begin
     id 5 
     name ltoes
     direction 1.53592e-011 -4.21925e-011 1   
     length 1.07518   
     axis -90 7.62852e-016 20   XYZ
    dof rx
    limits (-90.0 20.0)
  end
  begin
     id 6 
     name rhipjoint
     direction -0.57 -0.782963 0.249136   
     length 2.4047  
     axis 0 0 0  XYZ 
  end
  begin
     id 7 
     name rfemur
     direction -0.34202 -0.939693 0   
     length 7.51486   
     axis 0 0 -20   XYZ
    dof rx ry rz
    limits (-160.0 20.0)
           (-70.0 70.0)
           (-70.0 60.0)
  end
  begin
     id 8 
     name rtibia
     direction -0.34202 -0.939693 0   
     length 8.08317   
     axis 0 0 -20   XYZ
    dof rx
    limits (-10.0 170.0)
 end
 begin
     id 9 
     name rfoot
     direction -0.104954 -0.281256 0.953876   
     length 2.30343  
     axis -90 -7.62852e-016 -20   XYZ
    dof rx rz
    limits (-45.0 90.0)
           (-20.0 70.0)
  end
  begin
     id 10 
     name rtoes
     direction -1.53556e-011 -4.21922e-011 1   
     length 1.14803   
     axis -90 -7.62852e-016 -20   XYZ
    dof rx
    limits (-90.0 20.0)
  end
  begin
     id 11 
     name lowerback
     direction -0.0152855 0.99353 -0.11254   
     length 2.05311   
     axis 0 0 0   XYZ
    dof rx ry rz
    limits (-20.0 45.0)
           (-30.0 30.0)
           (-30.0 30.0)
  end
  begin
     id 12 
     name upperback
     direction -0.00157509 0.999443 -0.033332   
     length 2.06353   
     axis 0 0 0   XYZ
    dof rx ry rz
    limits (-20.0 45.0)
           (-30.0 30.0)
           (-30.0 30.0)
  end
  begin
     id 13 
     name thorax
     direction 0.00577788 0.999804 0.0189484   
     length 2.08472   
     axis 0 0 0   XYZ
    dof rx ry rz
    limits (-20.0 45.0)
           (-30.0 30.0)
           (-30.0 30.0)
  end
  begin
     id 14 
     name lowerneck
     direction -1.09301e-005 0.994719 0.10264   
     length 1.76249   
     axis 0 0 0   XYZ
    dof rx ry rz
    limits (-20.0 45.0)
           (-30.0 30.0)
           (-30.0 30.0)
  end
  begin
     id 15 
     name upperneck
     direction 0.0495018 0.988526 -0.142706   
     length 1.77897   
     axis 0 0 0   XYZ
    dof rx ry rz
    limits (-20.0 45.0)
           (-30.0 30.0)
           (-30.0 30.0)
  end
  begin
     id 16
     name head
     direction 0.0142736 0.998114 -0.0597101  
     length 1.78934  
     axis 0 0 0   XYZ
    dof rx ry rz
    limits (-20.0 45.0)
           (-30.0 30.0)
           (-30.0 30.0)
  end
  begin
     id 17 
     name lclavicle
     direction 0.918111 0.396107 -0.0130883  
     length 3.37276  
     axis 0 0 0   XYZ
    dof ry rz
    limits (-20.0 10.0)
           (0.0 20.0)
  end
  begin
     id 18 
     name lhumerus
     direction 1 -4.48975e-011 -3.26108e-027   
     length 5.34298   
     axis 180 -30 -90   XYZ
    dof rx ry rz
    limits (-60.0 90.0)
           (-90.0 90.0)
           (-90.0 90.0)
  end
  begin
     id 19
     name lradius
     direction 1 -4.48964e-011 -8.84413e-028   
     length 3.67262   
     axis 180 -30 -90   XYZ
    dof rx
    limits (-10.0 170.0)
  end
  begin
     id 20
     name lwrist
     direction 1 -4.48991e-011 -1.24264e-027   
     length 1.83631   
     axis -2.17013e-015 90 90   XYZ
    dof ry
    limits (-180.0 0.0)
 end
  begin
     id 21 
     name lhand
     direction 1 -4.48855e-011 -2.48528e-027   
     length 0.599298   
     axis 1.58582e-015 90 90   XYZ
    dof rx rz
    limits (-90.0 90.0)
           (-45.0 45.0)
  end
  begin
     id 22 
     name lfingers
     direction 1 -4.48811e-011 -4.97056e-027   
     length 0.48317   
     axis 3.17164e-015 90 90   XYZ
    dof rx
    limits (0.0 90.0)
  end
  begin
     id 23
     name lthumb
     direction 0.707107 -6.34882e-011 0.707107   
     length 0.693738   
     axis -90 45 2.85299e-015   XYZ
    dof rx rz
    limits (-45.0 45.0)
           (-45.0 45.0)
  end
  begin
     id 24 
     name rclavicle
     direction -0.920511 0.384752 -0.0680135   
     length 3.43787  
     axis 0 0 0   XYZ 
    dof ry rz
    limits (-10.0 20.0)
           (-20.0 0.0)
  end
  begin
     id 25 
     name rhumerus
     direction -0.999976 -0.00330524 0.00603274  
     length 5.5498   
     axis 180 30 90   XYZ
    dof rx ry rz
    limits (-90.0 60.0)
           (-90.0 90.0)
           (-90.0 90.0)
  end
  begin
     id 26 
     name rradius
     direction -1 -4.48967e-011 8.62438e-027   
     length 3.69401   
     axis 180 30 90   XYZ
    dof rx
    limits (-10.0 170.0)
  end
  begin
     id 27 
     name rwrist
     direction -1 -4.4897e-011 9.54866e-027   
     length 1.84701   
     axis -7.69462e-015 -90 -90   XYZ
    dof ry
    limits (-180.0 0.0)
  end
  begin
     id 28
     name rhand
     direction -1 -4.48982e-011 1.90973e-026   
     length 0.638113   
     axis -1.21857e-014 -90 -90   XYZ
    dof rx rz
    limits (-90.0 90.0)
           (-45.0 45.0)
  end
  begin
     id 29
     name rfingers
     direction -1 -4.48936e-011 3.81946e-026   
     length 0.514463   
     axis -2.43714e-014 -90 -90   XYZ
    dof rx
    limits (0.0 90.0)
  end
  begin
     id 30
     name rthumb
     direction -0.707107 -6.34942e-011 0.707107   
     length 0.738669   
     axis -90 -45 -2.85299e-015   XYZ
    dof rx rz
    limits (-45.0 45.0)
           (-45.0 45.0)
  end
:hierarchy
  begin
    root lhipjoint rhipjoint lowerback
    lhipjoint lfemur
    lfemur ltibia
    ltibia lfoot
    lfoot ltoes
    rhipjoint rfemur
    rfemur rtibia
    rtibia rfoot
    rfoot rtoes
    lowerback upperback
    upperback thorax
    thorax lowerneck lclavicle rclavicle
    lowerneck upperneck
    upperneck head
    lclavicle lhumerus
    lhumerus lradius
    lradius lwrist
    lwrist lhand lthumb
    lhand lfingers
    rclavicle rhumerus
    rhumerus rradius
    rradius rwrist
    rwrist rhand rthumb
    rhand rfingers
  end

#!OML:ASF F:\twosubjects\two\Thursday\Session 1\Rory.ASF
:FULLY-SPECIFIED
:DEGREES
83
root 20.4898 18.6576 12.206 3.53644 -5.79284 6.1128
lowerback 2.2098 -3.61657 -8.26855
upperback 0.57421 -5.0216 -3.07895
thorax -0.213492 -2.50961 1.52828
lowerneck 0.630332 -14.5648 -13.601
upperneck 8.23568 -21.5288 19.3868
head 6.01309 -10.4697 6.58434
rclavicle -7.00716e-014 -1.59028e-015
rhumerus -68.7494 -39.1493 -36.1466
rradius 13.1075
rwrist 62.6345
rhand -11.1014 17.9929
rfingers 7.12502
rthumb 14.9228 -11.4496
lclavicle -7.00716e-014 -1.59028e-015
lhumerus -24.308 4.28135 83.1572
lradius 32.4305
lwrist -16.8434
lhand -11.8216 29.1471
lfingers 7.12502
lthumb 14.2289 58.6397
rfemur -30.2795 7.07697 10.8847
rtibia 53.8129
rfoot -10.6695 -12.0449
rtoes -14.4826
lfemur -7.04183 4.31166 -31.9143
ltibia 23.1809
lfoot -13.5712 -13.6282
ltoes 17.0689
84
root 20.4839 18.6619 12.3551 3.52344 -5.48395 6.19867
lowerback 2.34575 -3.52181 -8.19541
upperback 0.518045 -4.9136 -3.09427
thorax -0.364859 -2.44938 1.48482
lowerneck 1.07527 -14.7729 -13.6671
upperneck 8.12657 -21.8528 19.4609
head 5.97629 -10.6557 6.60576
rclavicle -2.47487e-014 -3.10104e-014
rhumerus -67.3991 -37.7603 -38.915
rradius 13.5627
rwrist 59.3993
rhand -11.6991 18.7878
rfingers 7.12502
rthumb 14.3469 -10.6965
lclavicle -2.47487e-014 -3.10104e-014
lhumerus -24.2328 2.71079 83.7376
lradius 33.7601
lwrist -15.8499
lhand -11.643 29.1713
lfingers 7.12502
lthumb 14.401 58.6517
rfemur -30.3204 7.57621 10.6907
rtibia 51.2668
rfoot -11.3128 -12.0656
rtoes -14.445
lfemur -6.38927 4.44094 -31.9825
ltibia 22.9418
lfoot -13.6238 -13.8885
ltoes 18.1572
85
root 20.4755 18.678 12.5116 3.49345 -5.29149 5.85861
lowerback 2.32424 -3.448 -7.73338
upperback 0.619223 -4.79504 -3.03932
thorax -0.291062 -2.3954 1.28334
lowerneck 1.48286 -14.9562 -13.5939
upperneck 7.81204 -22.1295 19.7054
head 5.8807 -10.8164 6.66884
rclavicle 1.86858e-014 4.92986e-014
rhumerus -68.209 -38.3597 -37.7078
rradius 13.5864
rwrist 60.2066
rhand -12.5696 20.3235
rfingers 7.12502
rthumb 13.508 -9.2184
lclavicle 1.86858e-014 4.92986e-014
lhumerus -23.9263 1.49906 84.1398
lradius 34.9053
lwrist -15.1766
lhand -11.5524 29.1648
lfingers 7.12502
lthumb 14.4883 58.639
rfemur -30.1707 8.46013 10.9593
rtibia 48.5223
rfoot -11.5942 -12.2922
rtoes -15.2357
lfemur -5.55282 4.51181 -31.5909
ltibia 22.4908
lfoot -13.5959 -14.0036
ltoes 19.2857
86
root 20.4687 18.6976 12.6722 3.73915 -4.86175 5.79407
lowerback 2.12869 -3.52055 -7.78139
upperback 0.57725 -4.87231 -2.82642
thorax -0.196143 -2.43603 1.51579
lowerneck 1.77071 -15.1036 -13.8202
upperneck 7.66227 -22.3613 19.8904
head 5.87605 -10.9508 6.74731
rclavicle -8.73659e-014 -2.22639e-014
rhumerus -68.4034 -38.7098 -36.842
rradius 13.4499
rwrist 60.038
rhand -11.7099 19.4561
rfingers 7.12502
rthumb 14.3366 -10.0289
lclavicle -8.73659e-014 -2.22639e-014
lhumerus -23.6563 0.735957 84.7947
lradius 35.9223
lwrist -14.5155
lhand -12.0105 29.0591
lfingers 7.12502
lthumb 14.0468 58.5644
rfemur -30.2229 9.01344 10.8762
rtibia 45.7035
rfoot -11.5134 -12.4835
rtoes -15.9776
lfemur -4.88692 4.33855 -31.4927
ltibia 21.8403
lfoot -12.9928 -14.275
ltoes 21.084
87
root 20.4615 18.7142 12.8243 4.06188 -4.28444 6.12037
lowerback 1.97622 -3.77967 -8.31061
upperback 0.458688 -5.2166 -2.66051
thorax -0.142334 -2.60644 1.96741
lowerneck 2.05242 -15.107 -14.2418
upperneck 7.59339 -22.426 20.1923
head 5.90604 -11.004 6.91219
rclavicle 2.38542e-014 -7.95139e-015
rhumerus -65.4676 -36.6021 -41.3837
rradius 14.0461
rwrist 55.3343
rhand -10.2896 17.5558
rfingers 7.12502
rthumb 15.7048 -11.8269
lclavicle 2.38542e-014 -7.95139e-015
lhumerus -23.4182 0.308325 85.1743
lradius 36.8594
lwrist -14.22
lhand -12.4789 28.8762
lfingers 7.12502
lthumb 13.5955 58.4123
rfemur -30.4368 9.42179 10.2922
rtibia 42.9058
rfoot -11.6327 -12.4229
rtoes -13.9427
lfemur -4.19858 3.87718 -31.7648
ltibia 20.9144
lfoot -11.5055 -14.7726
ltoes 25.9244
88
root 20.4536 18.7193 12.9802 4.14199 -3.85276 6.19
lowerback 1.92872 -3.98339 -8.49508
upperback 0.51962 -5.47982 -2.56301
thorax -0.000596578 -2.74407 2.15938
lowerneck 2.48308 -15.15 -14.3086
upperneck 7.12044 -22.4984 20.561
head 5.7563 -11.0755 7.06894
rclavicle 4.01545e-014 1.82882e-014
rhumerus -63.1956 -34.6307 -45.2953
rradius 14.6508
rwrist 52.2008
rhand -10.3894 17.0149
rfingers 7.12502
rthumb 15.6086 -12.3754
lclavicle 4.01545e-014 1.82882e-014
lhumerus -23.1831 0.117722 85.2435
lradius 38.0158
lwrist -14.6477
lhand -12.0491 28.6661
lfingers 7.12502
lthumb 14.0097 58.174
rfemur -30.4448 10.1163 9.96986
rtibia 40.1683
rfoot -11.9723 -12.4129
rtoes -13.4353
lfemur -3.0569 3.5585 -31.7415
ltibia 19.6758
lfoot -9.78027 -15.3025
ltoes 30.5667
